<svg width="128" height="16" viewBox="0 0 128 16" fill="none" xmlns="http://www.w3.org/2000/svg">
<path d="M126.813 8.57992C125.474 9.33663 122.703 9.62767 121.271 9.70916C121.05 9.7208 120.969 9.76737 120.969 9.93035C120.969 10.7918 121.807 12.3867 123.949 12.3867C125.602 12.3867 126.592 11.5835 127.185 10.8151C127.337 10.6638 127.511 10.559 127.651 10.559C127.861 10.559 128 10.7686 128 11.2226C128 12.7476 126.207 15.1109 122.901 15.1109C119.316 15.1109 117.115 12.6778 117.115 9.23185C117.115 5.77428 119.548 2.80565 123.215 2.80565C126.405 2.80565 127.802 5.15727 127.802 7.01993C127.802 7.81157 127.406 8.26559 126.813 8.57992ZM124.636 6.48442C124.636 5.40174 123.891 4.58683 122.878 4.58683C121.493 4.58683 120.538 5.99547 120.538 7.43903C120.538 7.86978 120.678 8.12589 120.992 8.12589C121.725 8.12589 123.611 7.81157 124.333 7.17128C124.531 6.98501 124.636 6.77546 124.636 6.48442Z" fill="#111111"/>
<path d="M113.335 5.55308C113.289 6.03039 113.23 8.62648 113.23 9.83721C113.23 11.1644 113.58 12.3751 114.86 12.3751C115.5 12.3751 115.943 12.0026 116.234 11.7581C116.374 11.6184 116.467 11.5485 116.595 11.5485C116.769 11.5485 116.944 11.6766 116.944 12.1073C116.944 12.3518 116.863 12.6661 116.7 12.9805C116.257 13.8885 115.105 15.0876 113.091 15.0876C110.797 15.0876 109.796 13.5393 109.796 10.8733C109.796 9.81393 109.947 7.33425 109.947 5.99546C109.947 5.51815 109.819 5.27368 109.435 5.20383C108.713 5.12234 108.271 5.00592 108.271 4.55189C108.271 4.14444 108.376 3.74862 108.818 3.52743C109.587 3.14325 110.355 2.64266 110.914 2.08386C111.845 1.1176 111.973 0 112.695 0C113.114 0 113.44 0.325967 113.44 1.03611C113.44 1.52506 113.323 3.11997 113.323 3.22474C113.323 3.28295 113.335 3.31788 113.428 3.31788C113.661 3.31788 115.442 3.2131 115.745 3.2131C116.269 3.2131 116.583 3.36444 116.583 4.00474C116.583 4.42384 116.35 5.00592 116.106 5.27368C116.036 5.34353 115.873 5.42502 115.652 5.42502C115.396 5.42502 113.882 5.33189 113.533 5.33189C113.463 5.33189 113.347 5.35517 113.335 5.55308Z" fill="#111111"/>
<path d="M100.176 8.53335C101.631 8.06768 103.226 7.97455 103.552 7.73007C103.691 7.6253 103.831 7.38082 103.831 6.61247C103.831 5.33189 103.272 4.34235 102.05 4.34235C101.026 4.34235 100.478 5.15726 100.176 6.28651C100.001 6.91516 99.7333 7.36918 98.965 7.36918C98.1733 7.36918 97.405 6.81038 97.405 5.68114C97.405 4.28414 99.093 2.79401 102.073 2.79401C104.972 2.79401 107.242 4.21429 107.242 7.45067C107.242 8.94081 107.114 10.3844 107.114 11.5718C107.114 12.0259 107.265 12.5381 107.789 12.5381C108.034 12.5381 108.15 12.4566 108.325 12.4566C108.453 12.4566 108.558 12.6312 108.558 12.899C108.558 14.1214 107.475 15.0527 106.136 15.0527C105.042 15.0527 104.39 14.6569 104.017 13.9002C103.971 13.7954 103.901 13.6906 103.808 13.6906C103.715 13.6906 103.622 13.8187 103.529 13.9118C102.795 14.5987 101.573 15.1342 100.339 15.1342C98.3713 15.1342 96.8462 14.1214 96.8462 12.2121C96.8462 10.3727 98.1384 9.22021 100.176 8.53335ZM103.854 10.396C103.854 9.63931 103.773 9.46468 103.645 9.46468C102.97 9.46468 102.364 9.55782 101.817 9.75573C100.828 10.105 100.269 10.8151 100.269 11.5951C100.269 12.3751 100.828 12.899 101.677 12.899C103.04 12.899 103.854 11.8279 103.854 10.396Z" fill="#111111"/>
<path d="M87.7901 4.66832C88.0695 4.66832 89.3734 2.80565 91.6435 2.80565C94.1465 2.80565 95.2408 4.43548 95.2408 7.22948C95.2408 9.15036 94.9498 11.1644 94.9498 11.9793C94.9498 12.5032 95.1244 13.0387 95.4853 13.3297C95.8927 13.6673 96.2536 13.7372 96.2536 14.2378C96.2536 14.6452 95.9626 14.913 95.2874 14.913C94.6936 14.913 94.1348 14.8548 93.5295 14.8548C92.7495 14.8548 92.505 14.913 91.7716 14.913C91.2826 14.913 91.108 14.6219 91.108 14.2727C91.108 13.8187 91.2826 13.3879 91.3758 13.1318C91.597 12.4682 91.8414 10.3262 91.8414 8.25395C91.8414 6.12353 91.1313 5.14562 89.9322 5.14562C89.1522 5.14562 87.988 5.87905 87.988 7.47396C87.988 9.39484 87.9065 11.1644 87.9065 11.9793C87.9065 12.5032 87.988 13.027 88.3256 13.3297C88.7098 13.6673 89.0242 13.7372 89.0242 14.2378C89.0242 14.6452 88.7448 14.913 88.0695 14.913C87.4642 14.913 87.0451 14.8548 86.4513 14.8548C85.6713 14.8548 85.4269 14.913 84.6935 14.913C84.2045 14.913 84.0299 14.6219 84.0299 14.2727C84.0299 13.8187 84.2045 13.3879 84.2976 13.1318C84.5188 12.4682 84.7167 10.3262 84.7167 8.25395C84.7167 6.12353 84.0299 5.14562 82.8308 5.14562C81.9926 5.14562 80.8633 6.06532 80.8633 7.32262V11.6533C80.8633 12.573 80.9565 12.9223 81.2824 13.2832C81.5968 13.6324 81.9693 13.7139 81.9693 14.2378C81.9693 14.6336 81.7481 14.913 81.0845 14.913C80.4442 14.913 79.8738 14.8548 79.2801 14.8548C78.535 14.8548 77.8481 14.913 77.0332 14.913C76.4861 14.913 76.2998 14.6219 76.2998 14.2727C76.2998 13.7721 76.7189 13.516 76.9285 13.2948C77.4756 12.6894 77.5571 12.0841 77.5571 11.4903V6.46113C77.5571 5.78592 77.1729 5.51816 76.847 5.36682C76.6374 5.2504 76.3697 5.09906 76.3697 4.73817C76.3697 4.14444 77.1147 4.03967 78.0111 3.65549C79.152 3.13162 79.4198 2.8755 79.8156 2.8755C80.2463 2.8755 80.5025 3.06177 80.6422 3.65549C80.7469 4.10952 80.8051 4.58683 80.9798 4.58683C81.2359 4.58683 82.5397 2.80565 84.5421 2.80565C85.7296 2.80565 86.6493 3.24803 87.2663 4.10952C87.534 4.44712 87.6388 4.66832 87.7901 4.66832Z" fill="#111111"/>
<path d="M72.1497 5.49488C71.2184 5.49488 70.5082 6.71725 70.5082 7.84649V11.502C70.5082 12.4217 70.6945 12.8058 71.3464 13.2948C71.7306 13.5858 72.3942 13.7023 72.3942 14.2378C72.3942 14.6336 72.1846 14.913 71.4978 14.913C70.8226 14.913 70.0309 14.8548 68.8784 14.8548C68.0868 14.8548 67.5978 14.913 66.6083 14.913C66.0378 14.913 65.8516 14.6219 65.8516 14.2727C65.8516 13.7721 66.2823 13.516 66.5035 13.2948C67.0739 12.6894 67.1438 12.0841 67.1438 11.4903V6.46113C67.1438 5.78592 66.7247 5.50652 66.3754 5.35518C66.131 5.20383 65.9214 5.05249 65.9214 4.73817C65.9214 4.14444 66.6432 4.03967 67.528 3.65549C68.6805 3.13162 68.9948 2.8755 69.4023 2.8755C69.833 2.8755 70.0775 3.06177 70.2405 3.65549C70.3336 4.10952 70.4035 4.58683 70.6014 4.58683C70.8575 4.58683 71.9751 2.80565 73.8494 2.80565C74.9903 2.80565 76.073 3.48087 76.073 5.33189C76.073 6.61248 75.1416 7.91634 73.9891 7.91634C73.2207 7.91634 73.1858 7.43903 73.0112 6.63576C72.8598 5.90233 72.5572 5.49488 72.1497 5.49488Z" fill="#111111"/>
<path d="M53.2881 9.04559C53.2881 5.35518 55.7445 2.80565 59.1322 2.80565C62.3569 2.80565 65.2441 5.12234 65.2441 9.25514C65.2441 13.1551 62.5432 15.0876 59.2719 15.0876C55.6281 15.0876 53.2881 12.5497 53.2881 9.04559ZM58.8179 4.62175C57.8051 4.62175 56.8854 5.49488 56.8854 7.81157C56.8854 8.89424 57.06 10.2796 57.5489 11.339C58.0728 12.4333 58.8994 12.9572 59.7259 12.9572C60.797 12.9572 61.7981 12.1772 61.7981 10.1283C61.7981 8.94081 61.4838 7.47396 61.0065 6.43785C60.4128 5.22712 59.6095 4.62175 58.8179 4.62175Z" fill="#111111"/>
<path d="M49.5197 5.55308C49.4731 6.03039 49.4149 8.62648 49.4149 9.83721C49.4149 11.1644 49.7642 12.3751 51.0448 12.3751C51.685 12.3751 52.1274 12.0026 52.4185 11.7581C52.5582 11.6184 52.6513 11.5485 52.7794 11.5485C52.954 11.5485 53.1286 11.6766 53.1286 12.1073C53.1286 12.3518 53.0471 12.6661 52.8841 12.9805C52.4418 13.8885 51.2892 15.0876 49.2752 15.0876C46.9818 15.0876 45.9806 13.5393 45.9806 10.8733C45.9806 9.81393 46.132 7.33425 46.132 5.99546C46.132 5.51815 46.0039 5.27368 45.6197 5.20383C44.8979 5.12234 44.4556 5.00592 44.4556 4.55189C44.4556 4.14444 44.5603 3.74862 45.0027 3.52743C45.7711 3.14325 46.5394 2.64266 47.0982 2.08386C48.0296 1.1176 48.1576 0 48.8794 0C49.2985 0 49.6245 0.325967 49.6245 1.03611C49.6245 1.52506 49.508 3.11997 49.508 3.22474C49.508 3.28295 49.5197 3.31788 49.6128 3.31788C49.8457 3.31788 51.6268 3.2131 51.9295 3.2131C52.4534 3.2131 52.7677 3.36444 52.7677 4.00474C52.7677 4.42384 52.5349 5.00592 52.2904 5.27368C52.2206 5.34353 52.0576 5.42502 51.8364 5.42502C51.5803 5.42502 50.0669 5.33189 49.7176 5.33189C49.6477 5.33189 49.5313 5.35517 49.5197 5.55308Z" fill="#111111"/>
<path d="M36.3598 8.53335C37.815 8.06768 39.4099 7.97455 39.7359 7.73007C39.8756 7.6253 40.0153 7.38082 40.0153 6.61247C40.0153 5.33189 39.4565 4.34235 38.2341 4.34235C37.2096 4.34235 36.6625 5.15726 36.3598 6.28651C36.1852 6.91516 35.9174 7.36918 35.1491 7.36918C34.3574 7.36918 33.5891 6.81038 33.5891 5.68114C33.5891 4.28414 35.2771 2.79401 38.2574 2.79401C41.1562 2.79401 43.4263 4.21429 43.4263 7.45067C43.4263 8.94081 43.2982 10.3844 43.2982 11.5718C43.2982 12.0259 43.4496 12.5381 43.9734 12.5381C44.2179 12.5381 44.3343 12.4566 44.509 12.4566C44.637 12.4566 44.7418 12.6312 44.7418 12.899C44.7418 14.1214 43.6591 15.0527 42.3203 15.0527C41.226 15.0527 40.5741 14.6569 40.2015 13.9002C40.155 13.7954 40.0851 13.6906 39.992 13.6906C39.8989 13.6906 39.8057 13.8187 39.7126 13.9118C38.9792 14.5987 37.7568 15.1342 36.5228 15.1342C34.5553 15.1342 33.0303 14.1214 33.0303 12.2121C33.0303 10.3727 34.3225 9.22021 36.3598 8.53335ZM40.0386 10.396C40.0386 9.63931 39.9571 9.46468 39.829 9.46468C39.1538 9.46468 38.5484 9.55782 38.0013 9.75573C37.0117 10.105 36.4529 10.8151 36.4529 11.5951C36.4529 12.3751 37.0117 12.899 37.8616 12.899C39.2236 12.899 40.0386 11.8279 40.0386 10.396Z" fill="#111111"/>
<path d="M31.1746 8.57992C29.8358 9.33663 27.0651 9.62767 25.6331 9.70916C25.4119 9.7208 25.3304 9.76737 25.3304 9.93035C25.3304 10.7918 26.1686 12.3867 28.3107 12.3867C29.9638 12.3867 30.9534 11.5835 31.5471 10.8151C31.6984 10.6638 31.8731 10.559 32.0128 10.559C32.2223 10.559 32.362 10.7686 32.362 11.2226C32.362 12.7476 30.5692 15.1109 27.263 15.1109C23.6773 15.1109 21.4771 12.6778 21.4771 9.23185C21.4771 5.77428 23.9102 2.80565 27.5773 2.80565C30.7671 2.80565 32.1641 5.15727 32.1641 7.01993C32.1641 7.81157 31.7683 8.26559 31.1746 8.57992ZM28.9976 6.48442C28.9976 5.40174 28.2525 4.58683 27.2397 4.58683C25.8543 4.58683 24.8997 5.99547 24.8997 7.43903C24.8997 7.86978 25.0394 8.12589 25.3537 8.12589C26.0872 8.12589 27.9731 7.81157 28.6949 7.17128C28.8928 6.98501 28.9976 6.77546 28.9976 6.48442Z" fill="#111111"/>
<path d="M17.5657 5.49488C16.6344 5.49488 15.9242 6.71725 15.9242 7.84649V11.502C15.9242 12.4217 16.1105 12.8058 16.7624 13.2948C17.1466 13.5858 17.8102 13.7023 17.8102 14.2378C17.8102 14.6336 17.6006 14.913 16.9138 14.913C16.2386 14.913 15.4469 14.8548 14.2944 14.8548C13.5028 14.8548 13.0138 14.913 12.0243 14.913C11.4538 14.913 11.2676 14.6219 11.2676 14.2727C11.2676 13.7721 11.6983 13.516 11.9195 13.2948C12.49 12.6894 12.5598 12.0841 12.5598 11.4903V6.46113C12.5598 5.78592 12.1407 5.50652 11.7915 5.35518C11.547 5.20383 11.3374 5.05249 11.3374 4.73817C11.3374 4.14444 12.0592 4.03967 12.944 3.65549C14.0965 3.13162 14.4108 2.8755 14.8183 2.8755C15.249 2.8755 15.4935 3.06177 15.6565 3.65549C15.7496 4.10952 15.8195 4.58683 16.0174 4.58683C16.2735 4.58683 17.3911 2.80565 19.2654 2.80565C20.4063 2.80565 21.489 3.48087 21.489 5.33189C21.489 6.61248 20.5576 7.91634 19.4051 7.91634C18.6368 7.91634 18.6018 7.43903 18.4272 6.63576C18.2759 5.90233 17.9732 5.49488 17.5657 5.49488Z" fill="#111111"/>
<path d="M0 9.20857C0 5.79756 2.25848 2.80565 6.05367 2.80565C8.382 2.80565 10.1748 4.02802 10.1748 5.78592C10.1748 6.97337 9.33662 7.77664 8.07932 7.77664C7.52052 7.77664 7.35754 7.50888 7.2062 6.83367C6.96172 5.77428 6.54262 4.54026 5.40174 4.54026C4.15608 4.54026 3.30624 5.87905 3.30624 7.70679C3.30624 10.1166 4.63339 12.0375 6.97336 12.0375C8.76618 12.0375 9.5811 10.9548 10.0351 10.396C10.1632 10.268 10.3029 10.1283 10.4426 10.1283C10.7569 10.1283 10.8268 10.4892 10.8268 10.885C10.8268 12.7593 8.95245 15.1109 5.75099 15.1109C2.27013 15.1109 0 12.5847 0 9.20857Z" fill="#111111"/>
</svg>
